#Comment line ignore any data following # character 
#Hierarchical Translation and Rotation (.htr) file 
[Header]	
#Header keywords are followed by a single value 
FileType HTR		#Single word string
DataType HTRS		#Translation followed by rotation and scale data
FileVersion 1		#integer
NumSegments 84		#integer
NumFrames 2		#integer
DataFrameRate 30		#integer, data frame rate in this file
EulerRotationOrder ZYX
CalibrationUnits mm
RotationUnits Degrees
GlobalAxisofGravity Y
BoneLengthAxis Y
ScaleFactor 1.00
[SegmentNames&Hierarchy]
#CHILD	PARENT
MASTER GLOBAL
root MASTER
chest root
L_mid_tent01 root
R_mid_tent01 root
spine01 root
Bip01_Neck chest
L_humerus chest
R_humerus chest
weapon_bone chest
Bip01_Head Bip01_Neck
eye_left_bone Bip01_Head
eye_right_bone Bip01_Head
L_forearm L_humerus
L_front_hand L_forearm
L_weapon_bone L_forearm
L_front_hand01_01 L_front_hand
L_front_hand02_01 L_front_hand
L_front_hand03_01 L_front_hand
L_front_hand01_02 L_front_hand01_01
L_front_hand02_02 L_front_hand02_01
L_front_hand03_02 L_front_hand03_01
R_forearm R_humerus
R_front_hand R_forearm
R_weapon_bone R_forearm
R_front_hand01_01 R_front_hand
R_front_hand02_01 R_front_hand
R_front_hand03_01 R_front_hand
R_front_hand01_02 R_front_hand01_01
R_front_hand02_02 R_front_hand02_01
R_front_hand03_02 R_front_hand03_01
null_rope01_connect L_mid_tent01
Rope1_Seg01 null_rope01_connect
Rope1_Seg02 Rope1_Seg01
Rope1_Seg03 Rope1_Seg02
Rope1_Seg04 Rope1_Seg03
Rope1_Seg05 Rope1_Seg04
Rope1_Seg06 Rope1_Seg05
Rope1_Seg07 Rope1_Seg06
Rope1_Seg09 Rope1_Seg07
L_mid_hand01 Rope1_Seg09
L_mid_hand02 Rope1_Seg09
L_mid_hand03 Rope1_Seg09
null_rope02_connect R_mid_tent01
Rope2_Seg01 null_rope02_connect
Rope2_Seg02 Rope2_Seg01
Rope2_Seg03 Rope2_Seg02
Rope2_Seg04 Rope2_Seg03
Rope2_Seg05 Rope2_Seg04
Rope2_Seg06 Rope2_Seg05
Rope2_Seg07 Rope2_Seg06
Rope2_Seg09 Rope2_Seg07
R_mid_hand01 Rope2_Seg09
R_mid_hand02 Rope2_Seg09
R_mid_hand03 Rope2_Seg09
spine02 spine01
spine03 spine02
pelvis spine03
null_rope03_connect pelvis
null_rope04_connect pelvis
Rope3_Seg01 null_rope03_connect
Rope3_Seg02 Rope3_Seg01
Rope3_Seg03 Rope3_Seg02
Rope3_Seg04 Rope3_Seg03
Rope3_Seg05 Rope3_Seg04
Rope3_Seg06 Rope3_Seg05
Rope3_Seg07 Rope3_Seg06
Rope3_Seg08 Rope3_Seg07
Rope3_Seg09 Rope3_Seg08
R_rear_hand01 Rope3_Seg09
R_rear_hand02 Rope3_Seg09
R_rear_hand03 Rope3_Seg09
Rope4_Seg01 null_rope04_connect
Rope4_Seg02 Rope4_Seg01
Rope4_Seg03 Rope4_Seg02
Rope4_Seg04 Rope4_Seg03
Rope4_Seg05 Rope4_Seg04
Rope4_Seg06 Rope4_Seg05
Rope4_Seg07 Rope4_Seg06
Rope4_Seg08 Rope4_Seg07
Rope4_Seg09 Rope4_Seg08
L_rear_hand01 Rope4_Seg09
L_rear_hand02 Rope4_Seg09
L_rear_hand03 Rope4_Seg09
[BasePosition]
#SegmentName Tx, Ty, Tz, Rx, Ry, Rz, BoneLength
MASTER 0.000000 0.000000 0.000000 -90.000000 0.000000 0.000000 10.000000 
root 0.000000 0.000000 0.000000 0.000000 0.000000 0.000000 10.000000 
chest 0.000000 0.000000 0.000000 0.000000 0.000000 0.000000 10.000000 
L_mid_tent01 0.000000 0.000000 0.000000 0.000000 0.000000 0.000000 10.000000 
R_mid_tent01 0.000000 0.000000 0.000000 0.000000 0.000000 0.000000 10.000000 
spine01 0.000000 0.000000 0.000000 0.000000 0.000000 0.000000 10.000000 
Bip01_Neck 0.000000 0.000000 0.000000 0.000000 0.000000 0.000000 10.000000 
L_humerus 0.000000 0.000000 0.000000 0.000000 0.000000 0.000000 10.000000 
R_humerus 0.000000 0.000000 0.000000 0.000000 0.000000 0.000000 10.000000 
weapon_bone 0.000000 0.000000 0.000000 0.000000 0.000000 0.000000 10.000000 
Bip01_Head 0.000000 0.000000 0.000000 0.000000 0.000000 0.000000 10.000000 
eye_left_bone 0.000000 0.000000 0.000000 0.000000 0.000000 0.000000 10.000000 
eye_right_bone 0.000000 0.000000 0.000000 0.000000 0.000000 0.000000 10.000000 
L_forearm 0.000000 0.000000 0.000000 0.000000 0.000000 0.000000 10.000000 
L_front_hand 0.000000 0.000000 0.000000 0.000000 0.000000 0.000000 10.000000 
L_weapon_bone 0.000000 0.000000 0.000000 0.000000 0.000000 0.000000 10.000000 
L_front_hand01_01 0.000000 0.000000 0.000000 0.000000 0.000000 0.000000 10.000000 
L_front_hand02_01 0.000000 0.000000 0.000000 0.000000 0.000000 0.000000 10.000000 
L_front_hand03_01 0.000000 0.000000 0.000000 0.000000 0.000000 0.000000 10.000000 
L_front_hand01_02 0.000000 0.000000 0.000000 0.000000 0.000000 0.000000 10.000000 
L_front_hand02_02 0.000000 0.000000 0.000000 0.000000 0.000000 0.000000 10.000000 
L_front_hand03_02 0.000000 0.000000 0.000000 0.000000 0.000000 0.000000 10.000000 
R_forearm 0.000000 0.000000 0.000000 0.000000 0.000000 0.000000 10.000000 
R_front_hand 0.000000 0.000000 0.000000 0.000000 0.000000 0.000000 10.000000 
R_weapon_bone 0.000000 0.000000 0.000000 0.000000 0.000000 0.000000 10.000000 
R_front_hand01_01 0.000000 0.000000 0.000000 0.000000 0.000000 0.000000 10.000000 
R_front_hand02_01 0.000000 0.000000 0.000000 0.000000 0.000000 0.000000 10.000000 
R_front_hand03_01 0.000000 0.000000 0.000000 0.000000 0.000000 0.000000 10.000000 
R_front_hand01_02 0.000000 0.000000 0.000000 0.000000 0.000000 0.000000 10.000000 
R_front_hand02_02 0.000000 0.000000 0.000000 0.000000 0.000000 0.000000 10.000000 
R_front_hand03_02 0.000000 0.000000 0.000000 0.000000 0.000000 0.000000 10.000000 
null_rope01_connect 0.000000 0.000000 0.000000 0.000000 0.000000 0.000000 10.000000 
Rope1_Seg01 0.000000 0.000000 0.000000 0.000000 0.000000 0.000000 10.000000 
Rope1_Seg02 0.000000 0.000000 0.000000 0.000000 0.000000 0.000000 10.000000 
Rope1_Seg03 0.000000 0.000000 0.000000 0.000000 0.000000 0.000000 10.000000 
Rope1_Seg04 0.000000 0.000000 0.000000 0.000000 0.000000 0.000000 10.000000 
Rope1_Seg05 0.000000 0.000000 0.000000 0.000000 0.000000 0.000000 10.000000 
Rope1_Seg06 0.000000 0.000000 0.000000 0.000000 0.000000 0.000000 10.000000 
Rope1_Seg07 0.000000 0.000000 0.000000 0.000000 0.000000 0.000000 10.000000 
Rope1_Seg09 0.000000 0.000000 0.000000 0.000000 0.000000 0.000000 10.000000 
L_mid_hand01 0.000000 0.000000 0.000000 0.000000 0.000000 0.000000 10.000000 
L_mid_hand02 0.000000 0.000000 0.000000 0.000000 0.000000 0.000000 10.000000 
L_mid_hand03 0.000000 0.000000 0.000000 0.000000 0.000000 0.000000 10.000000 
null_rope02_connect 0.000000 0.000000 0.000000 0.000000 0.000000 0.000000 10.000000 
Rope2_Seg01 0.000000 0.000000 0.000000 0.000000 0.000000 0.000000 10.000000 
Rope2_Seg02 0.000000 0.000000 0.000000 0.000000 0.000000 0.000000 10.000000 
Rope2_Seg03 0.000000 0.000000 0.000000 0.000000 0.000000 0.000000 10.000000 
Rope2_Seg04 0.000000 0.000000 0.000000 0.000000 0.000000 0.000000 10.000000 
Rope2_Seg05 0.000000 0.000000 0.000000 0.000000 0.000000 0.000000 10.000000 
Rope2_Seg06 0.000000 0.000000 0.000000 0.000000 0.000000 0.000000 10.000000 
Rope2_Seg07 0.000000 0.000000 0.000000 0.000000 0.000000 0.000000 10.000000 
Rope2_Seg09 0.000000 0.000000 0.000000 0.000000 0.000000 0.000000 10.000000 
R_mid_hand01 0.000000 0.000000 0.000000 0.000000 0.000000 0.000000 10.000000 
R_mid_hand02 0.000000 0.000000 0.000000 0.000000 0.000000 0.000000 10.000000 
R_mid_hand03 0.000000 0.000000 0.000000 0.000000 0.000000 0.000000 10.000000 
spine02 0.000000 0.000000 0.000000 0.000000 0.000000 0.000000 10.000000 
spine03 0.000000 0.000000 0.000000 0.000000 0.000000 0.000000 10.000000 
pelvis 0.000000 0.000000 0.000000 0.000000 0.000000 0.000000 10.000000 
null_rope03_connect 0.000000 0.000000 0.000000 0.000000 0.000000 0.000000 10.000000 
null_rope04_connect 0.000000 0.000000 0.000000 0.000000 0.000000 0.000000 10.000000 
Rope3_Seg01 0.000000 0.000000 0.000000 0.000000 0.000000 0.000000 10.000000 
Rope3_Seg02 0.000000 0.000000 0.000000 0.000000 0.000000 0.000000 10.000000 
Rope3_Seg03 0.000000 0.000000 0.000000 0.000000 0.000000 0.000000 10.000000 
Rope3_Seg04 0.000000 0.000000 0.000000 0.000000 0.000000 0.000000 10.000000 
Rope3_Seg05 0.000000 0.000000 0.000000 0.000000 0.000000 0.000000 10.000000 
Rope3_Seg06 0.000000 0.000000 0.000000 0.000000 0.000000 0.000000 10.000000 
Rope3_Seg07 0.000000 0.000000 0.000000 0.000000 0.000000 0.000000 10.000000 
Rope3_Seg08 0.000000 0.000000 0.000000 0.000000 0.000000 0.000000 10.000000 
Rope3_Seg09 0.000000 0.000000 0.000000 0.000000 0.000000 0.000000 10.000000 
R_rear_hand01 0.000000 0.000000 0.000000 0.000000 0.000000 0.000000 10.000000 
R_rear_hand02 0.000000 0.000000 0.000000 0.000000 0.000000 0.000000 10.000000 
R_rear_hand03 0.000000 0.000000 0.000000 0.000000 0.000000 0.000000 10.000000 
Rope4_Seg01 0.000000 0.000000 0.000000 0.000000 0.000000 0.000000 10.000000 
Rope4_Seg02 0.000000 0.000000 0.000000 0.000000 0.000000 0.000000 10.000000 
Rope4_Seg03 0.000000 0.000000 0.000000 0.000000 0.000000 0.000000 10.000000 
Rope4_Seg04 0.000000 0.000000 0.000000 0.000000 0.000000 0.000000 10.000000 
Rope4_Seg05 0.000000 0.000000 0.000000 0.000000 0.000000 0.000000 10.000000 
Rope4_Seg06 0.000000 0.000000 0.000000 0.000000 0.000000 0.000000 10.000000 
Rope4_Seg07 0.000000 0.000000 0.000000 0.000000 0.000000 0.000000 10.000000 
Rope4_Seg08 0.000000 0.000000 0.000000 0.000000 0.000000 0.000000 10.000000 
Rope4_Seg09 0.000000 0.000000 0.000000 0.000000 0.000000 0.000000 10.000000 
L_rear_hand01 0.000000 0.000000 0.000000 0.000000 0.000000 0.000000 10.000000 
L_rear_hand02 0.000000 0.000000 0.000000 0.000000 0.000000 0.000000 10.000000 
L_rear_hand03 0.000000 0.000000 0.000000 0.000000 0.000000 0.000000 10.000000 
#Beginning of Data. Separated by tabs
#Fr	Tx	Ty	Tz	Rx	Ry	Rz	SF
[MASTER]
13 1996.300537 -0.000301 0.000000 0.002347 0.000000 89.997704 1996.300537
14 2126.358887 -0.000321 0.000000 0.002347 0.000000 89.997704 2126.358887
[root]
13 -62.822105 16.502380 952.244385 22.354240 -27.654058 -170.493561 954.457092
14 -62.822105 16.502380 983.614929 6.113004 -27.679270 -169.152405 985.757202
[chest]
13 -84.512650 -34.090519 0.000000 102.851959 -9.486418 -170.897125 91.129311
14 -84.512650 -34.090519 0.000000 86.250977 -7.482810 -168.289368 91.129311
[L_mid_tent01]
13 27.506254 22.059135 -251.246338 -30.599159 0.436983 15.455977 253.708328
14 27.498499 22.063572 -251.196533 -30.476833 1.063207 16.104883 253.658554
[R_mid_tent01]
13 23.228794 24.509907 226.238495 -151.830704 -40.828728 25.350395 228.744751
14 23.228794 24.509907 226.238495 -146.768860 -33.450657 19.568087 228.744751
[spine01]
13 -0.361383 -0.195265 0.000000 28.151579 1.942621 -4.137637 0.410763
14 -0.361383 -0.195265 0.000000 30.978958 1.989814 -3.800455 0.410763
[Bip01_Neck]
13 165.484543 71.581718 0.000119 175.896118 1.177290 24.871183 180.302734
14 165.484543 71.581718 0.000119 175.896118 1.177290 24.871183 180.302734
[L_humerus]
13 -13.983130 -135.272980 -120.471481 170.940796 81.564224 -99.189163 181.680161
14 -13.983130 -135.272980 -120.471481 170.940796 81.564224 -99.189163 181.680161
[R_humerus]
13 -13.983309 -135.273102 125.287651 -159.666046 -68.957870 -101.166077 184.909012
14 -13.983309 -135.273102 125.287651 -159.666046 -68.957870 -101.166077 184.909012
[weapon_bone]
13 235.964890 -300.705902 0.000000 0.000000 -89.951546 -128.212341 382.234833
14 235.964890 -300.705902 0.000000 0.000000 -89.951546 -128.212341 382.234833
[Bip01_Head]
13 261.355774 108.959457 -2.864134 2.248029 5.843378 -62.458351 283.173492
14 261.355774 108.959465 -2.864130 2.248029 5.843377 -62.458344 283.173492
[eye_left_bone]
13 -24.626970 125.451866 -64.772606 0.000000 -90.000000 -99.840431 143.318359
14 -24.626970 125.451866 -64.772606 0.000000 -90.000000 -99.840431 143.318359
[eye_right_bone]
13 -24.626970 125.451866 64.327362 0.000000 -89.960434 80.159386 143.117676
14 -24.626970 125.451866 64.327362 0.000000 -89.960434 80.159386 143.117676
[L_forearm]
13 322.776093 0.000000 -0.000119 0.000471 0.002300 -66.859406 322.776093
14 322.776093 0.000000 -0.000119 0.000471 0.002300 -66.859398 322.776093
[L_front_hand]
13 241.149185 -0.042021 -3.300071 -178.667953 -1.835447 -27.422350 241.171753
14 241.149185 -0.042021 -3.300071 -178.667953 -1.835447 -27.422350 241.171753
[L_weapon_bone]
13 156.183838 0.000000 0.000000 0.001660 0.001660 0.001660 156.183838
14 156.183838 0.000000 0.000000 0.001660 0.001660 0.001660 156.183838
[L_front_hand01_01]
13 86.095154 20.947098 -0.655860 0.329571 -0.500499 4.239699 88.609184
14 86.095154 20.947098 -0.655860 0.306723 -0.512937 7.116860 88.609184
[L_front_hand02_01]
13 86.935165 -11.437475 24.513514 116.981461 -4.267635 -2.518979 91.046425
14 86.935165 -11.437475 24.513514 117.110916 -6.830442 -3.833635 91.046425
[L_front_hand03_01]
13 86.637497 -14.123976 -20.424902 -118.365761 3.136832 -4.362156 90.126129
14 86.637497 -14.123976 -20.424902 -118.470726 5.665813 -5.734218 90.126129
[L_front_hand01_02]
13 71.020905 -0.000179 0.000030 0.001222 0.002004 -27.273384 71.020905
14 71.020905 -0.000179 0.000030 0.001154 0.002044 -31.106508 71.020905
[L_front_hand02_02]
13 71.020927 -0.000119 0.000060 0.001222 0.002004 -27.273384 71.020927
14 71.020927 -0.000119 0.000060 0.001154 0.002044 -31.106508 71.020927
[L_front_hand03_02]
13 71.020905 -0.000060 0.000060 0.001222 0.002004 -27.273384 71.020905
14 71.020905 -0.000060 0.000060 0.001154 0.002044 -31.106508 71.020905
[R_forearm]
13 322.776428 -0.000060 0.000030 0.199694 -0.075621 -69.903069 322.776428
14 322.776428 -0.000060 0.000030 0.199694 -0.075621 -69.903069 322.776428
[R_front_hand]
13 238.847015 -0.006795 2.210259 -1.531694 0.790216 -51.443054 238.857239
14 238.847015 -0.006795 2.210259 -1.531694 0.790216 -51.443054 238.857239
[R_weapon_bone]
13 155.664093 0.002503 -0.000030 0.003487 0.001180 -90.988930 155.664078
14 155.664093 0.002503 -0.000030 0.003487 0.001180 -90.988930 155.664078
[R_front_hand01_01]
13 87.624611 14.231146 22.918642 -116.989449 -4.397475 2.693365 91.683487
14 87.624611 14.231146 22.918642 -117.121368 -6.960303 4.008900 91.683487
[R_front_hand02_01]
13 89.356956 14.367283 -19.491137 118.396507 3.539998 4.818399 92.579636
14 89.356956 14.367283 -19.491137 118.507988 6.069113 6.193116 92.579636
[R_front_hand03_01]
13 87.286232 -22.307278 -0.143439 -0.347983 -0.289570 -4.622967 90.091743
14 87.286232 -22.307278 -0.143439 -0.335021 -0.307761 -7.500518 90.091743
[R_front_hand01_02]
13 71.020905 0.000060 0.000119 0.002004 0.001222 27.276796 71.020905
14 71.020905 0.000060 0.000119 0.002044 0.001154 31.109959 71.020905
[R_front_hand02_02]
13 71.020844 -0.000030 -0.000119 0.002004 0.001222 27.276796 71.020836
14 71.020844 -0.000030 -0.000119 0.002044 0.001154 31.109959 71.020836
[R_front_hand03_02]
13 71.020905 0.000000 0.000030 0.002004 0.001222 27.276796 71.020905
14 71.020905 0.000000 0.000030 0.002044 0.001154 31.109959 71.020905
[null_rope01_connect]
13 328.732483 0.000000 -0.000238 35.768364 -1.826919 67.669594 328.732483
14 328.732483 0.000000 -0.000238 38.705486 -16.834852 63.172142 328.732483
[Rope1_Seg01]
13 0.000000 0.000000 0.000000 123.751007 23.493608 -1.649832 0.000000
14 0.000000 0.000000 0.000000 130.428207 37.160065 -7.072117 0.000000
[Rope1_Seg02]
13 139.999863 -0.000179 0.000000 4.233500 4.834973 -13.029926 139.999863
14 139.999863 -0.000179 0.000000 5.891594 2.723370 -13.942066 139.999863
[Rope1_Seg03]
13 139.999924 0.000060 -0.000060 21.674675 6.387310 -23.376198 139.999924
14 139.999924 0.000060 -0.000060 23.275839 2.000610 -23.841339 139.999924
[Rope1_Seg04]
13 139.999924 -0.000060 -0.000119 80.483459 -3.749652 -30.110514 139.999924
14 139.999924 -0.000060 -0.000119 57.519791 -9.069698 -27.679348 139.999924
[Rope1_Seg05]
13 139.999832 0.000119 -0.000060 20.026423 -16.083990 -1.025846 139.999832
14 139.999832 0.000119 -0.000060 20.167168 -14.930584 -4.445903 139.999832
[Rope1_Seg06]
13 139.999954 0.000119 -0.000060 5.798392 -9.247895 2.488683 139.999954
14 139.999954 0.000119 -0.000060 7.462178 -9.772056 0.352745 139.999954
[Rope1_Seg07]
13 139.999985 0.000060 0.000000 3.221042 -7.930732 3.071889 139.999985
14 139.999985 0.000060 0.000000 4.584047 -8.873549 1.507567 139.999985
[Rope1_Seg09]
13 121.602913 0.000119 -0.000089 -89.793175 -1.359789 0.847147 121.602913
14 121.602913 0.000119 -0.000089 -89.793175 -1.359789 0.847147 121.602913
[L_mid_hand01]
13 103.859421 1.038730 8.195221 104.366898 -2.421568 -1.149032 104.187431
14 103.859421 1.038730 8.195221 104.394287 -4.293092 -1.633497 104.187431
[L_mid_hand02]
13 105.572853 -4.139662 -10.864139 -135.786102 5.891682 -5.427630 106.211075
14 105.572853 -4.139662 -10.864139 -135.946564 7.240659 -6.824872 106.211075
[L_mid_hand03]
13 104.641464 17.579376 -3.913581 -18.755919 0.592747 5.640763 106.179977
14 104.641464 17.579376 -3.913581 -18.729256 1.210565 7.472278 106.179977
[null_rope02_connect]
13 328.732849 0.000179 -0.000119 -119.866501 -69.844307 -74.087952 328.732849
14 328.732849 0.000179 -0.000119 -140.167175 -55.518768 -58.505531 328.732849
[Rope2_Seg01]
13 -0.000058 0.000134 0.000153 170.089691 -65.394577 -15.613205 0.000211
14 -0.000056 0.000134 0.000153 151.114410 -45.662666 -12.231087 0.000210
[Rope2_Seg02]
13 139.999741 -0.000060 -0.000119 -19.708395 -8.157450 -33.021645 139.999756
14 139.999741 -0.000060 -0.000119 -26.602329 -2.456960 -32.742310 139.999756
[Rope2_Seg03]
13 140.000107 0.000030 0.000000 -11.536016 7.630980 -44.047081 140.000107
14 140.000107 0.000030 0.000000 -13.044456 15.656517 -35.822876 140.000107
[Rope2_Seg04]
13 139.999802 0.000000 -0.000060 1.264034 3.772471 -18.280418 139.999802
14 139.999802 0.000000 -0.000060 -0.287033 8.219896 -16.107382 139.999802
[Rope2_Seg05]
13 139.999985 -0.000060 0.000119 4.181297 -2.722042 -15.465140 139.999985
14 139.999985 -0.000060 0.000119 3.260846 3.149065 -15.403405 139.999985
[Rope2_Seg06]
13 139.999893 -0.000030 -0.000119 3.881783 -2.745904 -11.977721 139.999893
14 139.999893 -0.000030 -0.000119 4.332121 1.950338 -12.129416 139.999893
[Rope2_Seg07]
13 139.999893 0.000060 -0.000060 2.394291 -1.601180 -7.011735 139.999893
14 139.999893 0.000060 -0.000060 3.417239 0.916663 -7.393297 139.999893
[Rope2_Seg09]
13 121.338966 0.000089 -0.000060 33.793236 -1.359788 -0.847141 121.338966
14 121.338966 0.000089 -0.000060 33.793236 -1.359788 -0.847141 121.338966
[R_mid_hand01]
13 104.680779 11.144459 -10.335981 -47.166042 5.964268 8.233263 105.778534
14 104.680779 11.144459 -10.335981 -47.009083 7.397055 9.573327 105.778534
[R_mid_hand02]
13 104.070427 2.443552 8.231699 75.550705 -6.213388 2.132293 104.424065
14 104.070427 2.443552 8.231699 75.492203 -8.101108 2.625583 104.424065
[R_mid_hand03]
13 106.028137 -11.221827 -5.996406 -164.587372 3.590652 -10.082821 106.788818
14 106.028137 -11.221827 -5.996406 -164.713638 4.104003 -11.970146 106.788818
[spine02]
13 129.756927 0.001550 0.000119 -0.245322 -4.052060 -4.355547 129.756927
14 129.756927 0.001550 0.000119 -0.245322 -4.052060 -4.355547 129.756927
[spine03]
13 78.613739 0.087201 -4.899035 0.369659 4.260735 -4.885721 78.766281
14 78.613739 0.087207 -4.899055 0.369659 4.260735 -4.885721 78.766281
[pelvis]
13 169.435242 0.051022 0.000000 -0.010060 -0.194454 -1.836679 169.435257
14 169.435242 0.051022 0.000000 -0.010053 -0.194075 -1.844289 169.435257
[null_rope03_connect]
13 -1.257226 -2.466202 137.391083 16.567923 54.657211 91.502098 137.418976
14 -1.257226 -2.466202 137.391083 19.828707 42.020947 92.728073 137.418976
[null_rope04_connect]
13 -1.259640 -2.480268 -137.844437 16.567923 54.657211 91.502098 137.872513
14 -1.259640 -2.480268 -137.844437 19.828707 42.020947 92.728073 137.872513
[Rope3_Seg01]
13 0.000000 0.000000 0.000000 -4.491082 -0.083143 -145.755386 0.000000
14 0.000000 0.000000 0.000000 15.228489 -11.278643 -150.072571 0.000000
[Rope3_Seg02]
13 139.999924 -0.000119 0.000060 -19.518204 -1.011844 -12.622935 139.999924
14 139.999924 -0.000119 0.000060 -10.088413 -6.025873 -11.154871 139.999924
[Rope3_Seg03]
13 139.999924 -0.000119 0.000119 -93.997589 6.767882 -26.384958 139.999924
14 139.999924 -0.000119 0.000119 -159.093262 -8.109958 -26.033716 139.999924
[Rope3_Seg04]
13 139.999924 0.000119 0.000000 -20.004930 31.406170 10.809224 139.999924
14 139.999924 0.000119 0.000000 2.633026 19.288254 27.443455 139.999924
[Rope3_Seg05]
13 139.999924 -0.000238 0.000060 0.272305 20.850309 19.306715 139.999924
14 139.999924 -0.000238 0.000060 3.194235 15.460253 23.707399 139.999924
[Rope3_Seg06]
13 139.999893 -0.000119 -0.000060 1.969374 13.988914 14.327224 139.999893
14 139.999893 -0.000119 -0.000060 2.004591 10.859575 16.469839 139.999893
[Rope3_Seg07]
13 139.999771 0.000060 -0.000119 1.171321 6.114251 6.015444 139.999771
14 139.999771 0.000060 -0.000119 0.835158 4.803147 6.976112 139.999771
[Rope3_Seg08]
13 139.999985 -0.000060 0.000000 0.889674 3.037149 2.880291 139.999985
14 139.999985 -0.000060 0.000000 0.636641 2.392644 3.389189 139.999985
[Rope3_Seg09]
13 90.185997 -0.000179 -0.000060 89.793228 -1.359877 -0.847183 90.185997
14 90.185997 -0.000179 -0.000060 89.793228 -1.359877 -0.847183 90.185997
[R_rear_hand01]
13 103.366196 -6.073594 -10.757982 -156.049316 6.070419 -2.795869 104.101845
14 103.366196 -6.073594 -10.757982 -156.102097 6.291094 -3.294051 104.101845
[R_rear_hand02]
13 100.509819 12.039542 -7.992327 -38.708435 1.958051 5.461186 101.543350
14 100.509819 12.039542 -7.992327 -38.693447 2.294945 5.884003 101.543350
[R_rear_hand03]
13 101.539970 5.215704 5.435467 84.307625 -2.361032 4.099037 101.819031
14 101.539970 5.215704 5.435467 84.306572 -2.901705 4.150926 101.819031
[Rope4_Seg01]
13 0.000000 0.000000 0.000000 -98.004387 8.629583 -84.882874 0.000000
14 0.000000 0.000000 0.000000 -99.392021 7.924527 -90.932198 0.000000
[Rope4_Seg02]
13 139.999985 0.000060 0.000119 3.685464 9.666451 34.283886 139.999985
14 139.999985 0.000060 0.000119 2.291837 14.832645 29.946470 139.999985
[Rope4_Seg03]
13 139.999924 0.000000 -0.000238 -20.252260 9.963490 55.575573 139.999924
14 139.999924 0.000000 -0.000238 -28.234488 17.606634 55.004711 139.999924
[Rope4_Seg04]
13 139.999985 0.000000 0.000119 -16.068014 -0.418591 18.875481 139.999985
14 139.999985 0.000000 0.000119 -25.728880 -2.239170 19.917179 139.999985
[Rope4_Seg05]
13 139.999802 -0.000060 -0.000119 -13.127949 3.904849 14.186782 139.999802
14 139.999802 -0.000060 -0.000119 -18.968624 0.747805 13.952259 139.999802
[Rope4_Seg06]
13 139.999924 0.000000 0.000060 -14.106271 0.483145 10.697001 139.999924
14 139.999924 0.000000 0.000060 -17.001511 -2.517528 10.093160 139.999924
[Rope4_Seg07]
13 139.999802 0.000000 0.000000 -9.114651 -1.940239 5.547140 139.999802
14 139.999802 0.000000 0.000000 -8.703638 -3.649236 4.409152 139.999802
[Rope4_Seg08]
13 139.999924 0.000000 0.000119 -6.939703 -1.660360 3.080806 139.999924
14 139.999924 0.000000 0.000119 -6.182235 -2.545868 2.274516 139.999924
[Rope4_Seg09]
13 90.185791 0.000060 0.000060 -135.617828 2.228885 0.850567 90.185791
14 90.185791 0.000060 0.000060 -135.617828 2.228885 0.850567 90.185791
[L_rear_hand01]
13 101.696655 -8.392275 -7.654577 -38.746338 0.246096 177.290207 102.329041
14 101.696655 -8.392275 -7.654577 -38.746677 -0.110138 176.843857 102.329041
[L_rear_hand02]
13 102.726799 -1.568258 5.773216 84.315163 -1.142796 176.247437 102.900848
14 102.726799 -1.568258 5.773216 84.314537 -0.574387 176.194839 102.900848
[L_rear_hand03]
13 104.552910 9.721220 -10.420293 -155.747955 -4.630845 179.564758 105.519653
14 104.552910 9.721220 -10.420293 -155.787659 -4.864427 -179.911667 105.519653
